<svg xmlns="http://www.w3.org/2000/svg">

  <svg id="linkedin" viewBox="0 0 24 24" fill="none">
    <path fill="currentcolor" d="M22.186-.063c.979 0 1.776.775 1.776 1.73V22.21c0 .956-.797 1.733-1.776 1.733H1.727c-.977 0-1.77-.777-1.77-1.733V1.668c0-.955.793-1.73 1.77-1.73h20.46Zm-1.773 20.455V14.11c0-3.086-.666-5.458-4.271-5.458-1.733 0-2.894.95-3.37 1.85h-.048V8.936H9.311v11.456h3.556v-5.666c0-1.494.283-2.942 2.136-2.942 1.827 0 1.85 1.709 1.85 3.037v5.571h3.56ZM7.078 8.936H3.513v11.456h3.565V8.936ZM5.296 3.241a2.064 2.064 0 1 0 0 4.13 2.065 2.065 0 0 0 0-4.13Z"/>
  </svg>

  <svg id="instagram" viewBox="0 0 24 24" fill="none">
    <path d="M12 5.75809C8.61291 5.75809 5.80646 8.51615 5.80646 11.9516C5.80646 15.3871 8.56452 18.1452 12 18.1452C15.4355 18.1452 18.1936 15.3387 18.1936 11.9516C18.1936 8.56454 15.3871 5.75809 12 5.75809ZM12 15.9194C9.82259 15.9194 8.03226 14.1291 8.03226 11.9516C8.03226 9.77422 9.82259 7.98389 12 7.98389C14.1774 7.98389 15.9677 9.77422 15.9677 11.9516C15.9677 14.1291 14.1774 15.9194 12 15.9194Z" fill="currentcolor"/>
    <path d="M18.4355 7.01611C19.2105 7.01611 19.8387 6.38786 19.8387 5.61288C19.8387 4.8379 19.2105 4.20966 18.4355 4.20966C17.6605 4.20966 17.0323 4.8379 17.0323 5.61288C17.0323 6.38786 17.6605 7.01611 18.4355 7.01611Z" fill="currentcolor"/>
    <path d="M22.0645 1.98387C20.8065 0.677419 19.0161 0 16.9839 0H7.01613C2.80645 0 0 2.80645 0 7.01613V16.9355C0 19.0161 0.677419 20.8065 2.03226 22.1129C3.33871 23.371 5.08065 24 7.06452 24H16.9355C19.0161 24 20.7581 23.3226 22.0161 22.1129C23.3226 20.8548 24 19.0645 24 16.9839V7.01613C24 4.98387 23.3226 3.24194 22.0645 1.98387ZM21.871 16.9839C21.871 18.4839 21.3387 19.6935 20.4677 20.5161C19.5968 21.3387 18.3871 21.7742 16.9355 21.7742H7.06452C5.6129 21.7742 4.40323 21.3387 3.53226 20.5161C2.66129 19.6452 2.22581 18.4355 2.22581 16.9355V7.01613C2.22581 5.56452 2.66129 4.35484 3.53226 3.48387C4.35484 2.66129 5.6129 2.22581 7.06452 2.22581H17.0323C18.4839 2.22581 19.6935 2.66129 20.5645 3.53226C21.3871 4.40323 21.871 5.6129 21.871 7.01613V16.9839Z" fill="currentcolor"/>
  </svg>

  <svg id="github" viewBox="0 0 24 24" fill="none">
    <path fill-rule="evenodd" clip-rule="evenodd" d="M12 0C5.37321 0 0 5.50743 0 12.306C0 17.7438 3.43929 22.3512 8.20714 23.9798C8.80714 24.0923 9.02679 23.712 9.02679 23.3852C9.02679 23.0905 9.01607 22.319 9.01071 21.2904C5.67321 22.0351 4.96607 19.6403 4.96607 19.6403C4.41964 18.2206 3.63214 17.8402 3.63214 17.8402C2.54464 17.0741 3.7125 17.0902 3.7125 17.0902C4.91786 17.1759 5.55 18.3599 5.55 18.3599C6.62143 20.2404 8.35714 19.6993 9.04286 19.3832C9.15 18.5903 9.46071 18.0438 9.80357 17.7384C7.14107 17.4277 4.33929 16.3723 4.33929 11.6578C4.33929 10.313 4.80536 9.21477 5.57143 8.35758C5.44821 8.04685 5.03571 6.79322 5.68929 5.10027C5.68929 5.10027 6.69643 4.76811 8.98929 6.35926C9.94821 6.08604 10.9714 5.9521 11.9946 5.94674C13.0125 5.9521 14.0411 6.08604 15 6.35926C17.2929 4.76811 18.2946 5.10027 18.2946 5.10027C18.9482 6.79322 18.5357 8.04685 18.4125 8.35758C19.1786 9.22013 19.6446 10.3184 19.6446 11.6578C19.6446 16.383 16.8375 17.4223 14.1643 17.7277C14.5929 18.1081 14.9786 18.8581 14.9786 20.0046C14.9786 21.6494 14.9625 22.978 14.9625 23.3798C14.9625 23.7066 15.1768 24.0923 15.7875 23.9691C20.5661 22.3458 24 17.7384 24 12.306C24 5.50743 18.6268 0 12 0Z" fill="currentcolor"/>
  </svg>

  <svg id="telegram" viewBox="0 0 24 24" fill="none">
    <path d="M12 0C5.37258 0 0 5.37258 0 12C0 18.6274 5.37258 24 12 24C18.6274 24 24 18.6274 24 12C24 5.37258 18.6274 0 12 0ZM18.2371 7.59075L16.1058 17.7656C16.08 17.8887 16.0237 18.0033 15.9421 18.0989C15.8605 18.1946 15.7561 18.2681 15.6386 18.3129C15.5211 18.3577 15.3942 18.3722 15.2697 18.3551C15.1451 18.3381 15.0268 18.29 14.9257 18.2153L11.8255 15.9249L9.94734 17.6968C9.92276 17.72 9.8938 17.7381 9.86216 17.75C9.83051 17.7618 9.79682 17.7673 9.76305 17.766C9.72927 17.7647 9.69609 17.7567 9.66544 17.7425C9.63479 17.7282 9.60729 17.708 9.58453 17.683L9.54417 17.6387L9.87052 14.4805L15.7526 9.10622C15.7817 9.07969 15.7998 9.04321 15.8033 9.004C15.8068 8.96478 15.7955 8.92567 15.7716 8.89438C15.7477 8.86309 15.7129 8.8419 15.6742 8.83497C15.6354 8.82805 15.5955 8.8359 15.5622 8.85698L8.03977 13.6181L4.8 12.53C4.71386 12.5011 4.63878 12.4462 4.58506 12.3729C4.53135 12.2996 4.50163 12.2115 4.49999 12.1206C4.49835 12.0297 4.52486 11.9406 4.57589 11.8654C4.62691 11.7902 4.69996 11.7326 4.785 11.7006L17.4609 6.9255C17.5587 6.8887 17.6646 6.87885 17.7675 6.89697C17.8704 6.91509 17.9665 6.96052 18.0458 7.02851C18.1252 7.0965 18.1848 7.18455 18.2184 7.28345C18.2521 7.38236 18.2585 7.48849 18.2371 7.59075Z" fill="currentcolor"/>
  </svg>

</svg>
