<svg width="500" height="500" viewBox="0 0 500 500" fill="none" xmlns="http://www.w3.org/2000/svg">
<circle cx="250" cy="250" r="250" fill="#1B1B1B"/>
<path d="M286.226 407C273.273 407 260.478 404.283 247.841 398.85C235.204 393.417 223.989 385.907 214.195 376.319C204.718 366.412 197.451 355.386 192.397 343.241C190.501 345.798 187.5 349.953 183.393 355.705C179.286 361.458 175.021 367.051 170.598 372.484C166.491 377.597 163.173 381.113 160.646 383.031C157.487 385.268 154.012 387.185 150.221 388.783C146.745 390.381 143.27 391.18 139.795 391.18C131.265 391.18 127 386.866 127 378.237C127 376 127.316 373.922 127.948 372.005C128.58 369.767 129.211 367.53 129.843 365.293C136.162 347.396 145.008 328.7 156.381 309.205C167.754 289.709 178.812 272.292 189.553 256.951C181.655 242.569 175.021 226.11 169.65 207.574C164.595 188.718 162.068 171.14 162.068 154.841C162.068 145.253 163.173 135.666 165.385 126.078C167.912 116.49 172.335 108.66 178.654 102.588C184.972 96.1959 193.818 93 205.191 93C216.249 93 227.938 95.8763 240.259 101.629C252.58 107.382 264.427 114.413 275.801 122.722C287.174 131.032 296.494 139.181 303.76 147.171C306.919 145.253 311.816 142.537 318.451 139.021C325.085 135.186 331.562 131.831 337.88 128.954C344.514 126.078 349.411 124.64 352.571 124.64C357.625 124.64 360.153 127.196 360.153 132.31C360.153 133.588 359.679 135.346 358.731 137.583C358.099 139.82 356.678 140.939 354.466 140.939C351.939 140.939 350.675 139.82 350.675 137.583C350.675 136.624 350.991 135.825 351.623 135.186C352.571 134.227 353.044 133.588 353.044 133.269C353.044 132.31 352.729 131.831 352.097 131.831C349.569 131.831 345.304 133.428 339.302 136.624C333.615 139.501 327.928 142.856 322.242 146.692C316.555 150.207 312.606 152.764 310.395 154.362C322.084 167.465 332.509 182.486 341.671 199.424C351.149 216.043 358.573 233.621 363.944 252.157C369.315 270.374 372 288.591 372 306.808C372 319.591 370.104 332.535 366.313 345.638C362.522 358.422 356.046 369.767 346.884 379.675C330.456 397.892 310.237 407 286.226 407ZM196.188 248.322C210.088 229.466 225.411 211.889 242.155 195.589C259.215 179.29 277.38 164.749 296.652 151.965C290.649 144.934 282.751 137.743 272.957 130.392C263.48 122.722 253.37 116.33 242.629 111.217C231.887 105.784 221.778 103.067 212.3 103.067C202.506 103.067 194.924 106.103 189.553 112.176C184.498 118.248 181.023 125.598 179.128 134.227C177.548 142.856 176.758 151.166 176.758 159.156C176.758 173.218 178.496 188.398 181.971 204.698C185.446 220.677 190.185 235.219 196.188 248.322ZM281.014 398.371C302.812 398.371 321.136 390.062 335.985 373.443C343.251 365.773 347.99 355.865 350.201 343.721C352.413 331.256 353.518 320.071 353.518 310.163C353.518 284.596 348.937 258.23 339.776 231.064C330.93 203.899 318.609 180.089 302.812 159.635C284.173 174.336 266.639 190.795 250.211 209.012C234.099 227.229 218.934 245.925 204.718 265.101C208.825 272.132 213.564 279.003 218.934 285.715C224.305 292.426 230.466 298.179 237.416 302.973C238.995 303.931 240.733 304.89 242.629 305.849C244.524 306.808 246.42 307.926 248.315 309.205C248.947 309.524 249.421 310.004 249.737 310.643C250.369 311.282 250.685 311.921 250.685 312.56C250.685 314.478 249.895 315.437 248.315 315.437C247.683 315.437 247.052 315.277 246.42 314.957C237.258 310.483 228.728 304.411 220.83 296.74C212.932 288.751 205.823 280.601 199.505 272.292C197.293 275.488 193.66 280.601 188.605 287.632C183.867 294.663 178.496 302.653 172.493 311.602C166.807 320.55 161.12 329.659 155.433 338.927C150.063 348.195 145.64 356.504 142.164 363.855C138.689 371.206 136.952 376.798 136.952 380.634C136.952 382.871 138.057 383.989 140.269 383.989C142.48 383.989 145.166 383.19 148.325 381.592C151.8 379.994 154.328 378.556 155.907 377.278C158.435 375.36 161.91 371.525 166.333 365.773C171.072 360.02 175.652 354.107 180.075 348.035C184.498 341.643 187.658 337.169 189.553 334.612C189.237 333.014 188.763 331.256 188.132 329.339C187.816 327.421 187.658 325.664 187.658 324.066C187.658 320.231 189.869 318.313 194.292 318.313C195.872 318.313 197.767 318.952 199.979 320.231C202.19 321.189 203.296 322.787 203.296 325.024C203.296 326.303 202.506 328.22 200.926 330.777C199.347 333.014 198.241 334.612 197.609 335.571C201.4 347.396 207.403 358.102 215.617 367.69C224.147 376.958 234.099 384.309 245.472 389.742C256.845 395.495 268.692 398.371 281.014 398.371ZM194.766 325.983V324.066L193.818 325.504C194.45 325.504 194.766 325.664 194.766 325.983Z" fill="white"/>
</svg>
