<svg viewBox="0 0 300 300" fill="none" xmlns="http://www.w3.org/2000/svg">
<circle class="background" cx="150" cy="150" r="150" fill="#1b1b1b"/>
<path class="letter" d="M56.75 196.75C56.75 194.75 58.0833 193.75 60.75 193.75C63.4167 193.75 71.6667 195.583 85.5 199.25C88.6667 171.917 97.5833 142.25 112.25 110.25C117.417 98.5833 123.583 92.75 130.75 92.75C132.083 92.75 133.333 94.1667 134.5 97C135.833 99.8333 136.5 103.333 136.5 107.5C136.5 112.5 133.833 126.25 128.5 148.75C123.333 171.25 119.917 190.833 118.25 207.5C129.25 210 138.917 211.25 147.25 211.25C155.75 211.25 163.5 209.083 170.5 204.75C177.5 200.25 183.5 194.5 188.5 187.5C198.833 172.667 204 154.833 204 134C203.833 95.5 188.5 76.25 158 76.25C147.167 76.4167 128 81.25 100.5 90.75C95.1667 92.5833 90.5 93.5 86.5 93.5C82.5 93.5 80.5 92.3333 80.5 90C80.5 86.8333 82.8333 83.0833 87.5 78.75C92.1667 74.4167 98.1667 70.25 105.5 66.25C123.5 56.5833 141 51.75 158 51.75C181.333 51.75 200.5 58 215.5 70.5C233.167 85.3333 241.917 107.833 241.75 138C241.75 150.833 239.75 163.5 235.75 176C231.75 188.5 225.667 199.667 217.5 209.5C209.333 219.167 199 227 186.5 233C174 239 159.25 242 142.25 242C135.417 242 126.75 240.5 116.25 237.5C115.083 240.667 112.167 242.25 107.5 242.25C98.8333 242.25 92.9167 240.833 89.75 238C86.75 235 85 230.167 84.5 223.5C76.5 219 69.8333 214.333 64.5 209.5C59.3333 204.667 56.75 200.417 56.75 196.75Z" fill="#F1F0FF"/>
</svg>
