<svg version="1.0" xmlns="http://www.w3.org/2000/svg"
 width="512.000000pt" height="512.000000pt" viewBox="0 0 512.000000 512.000000"
 preserveAspectRatio="xMidYMid meet">
  <g transform="translate(0.000000,512.000000) scale(0.100000,-0.100000)"
  fill="#313131" stroke="none">
    <path d="M0 2560 l0 -2560 2560 0 2560 0 0 2560 0 2560 -2560 0 -2560 0 0
    -2560z m2198 1844 c260 -54 662 -289 922 -540 l85 -82 100 55 c367 202 512
    248 560 180 30 -43 11 -141 -32 -158 -49 -18 -88 38 -48 71 23 19 18 30 -14
    30 -36 0 -222 -95 -361 -184 -58 -37 -109 -71 -113 -75 -4 -4 18 -39 50 -77
    239 -285 459 -693 569 -1052 81 -267 109 -464 101 -731 -9 -321 -75 -538 -226
    -738 -142 -188 -330 -319 -536 -374 -102 -27 -323 -37 -433 -19 -164 26 -361
    105 -515 207 -151 99 -313 286 -401 461 l-37 73 -86 -118 c-124 -169 -236
    -306 -281 -342 -22 -17 -74 -47 -116 -67 -61 -29 -89 -36 -139 -37 -154 -3
    -196 97 -127 303 96 285 299 665 589 1100 64 96 117 178 119 182 2 3 -21 57
    -51 120 -168 352 -255 686 -264 1023 -8 258 14 402 82 541 62 127 163 218 275
    248 73 20 233 20 328 0z"/>
    <path d="M1955 4276 c-222 -93 -312 -419 -254 -916 26 -221 113 -552 191 -728
    l24 -53 33 47 c58 79 187 233 319 377 201 221 476 461 734 640 l118 82 -63 63
    c-192 196 -501 400 -717 473 -80 27 -113 33 -210 36 -105 3 -120 2 -175 -21z"/>
    <path d="M3070 3533 c-299 -252 -668 -650 -982 -1061 l-71 -92 58 -88 c129
    -193 247 -311 394 -392 86 -48 113 -78 91 -105 -17 -20 -34 -14 -134 45 -134
    79 -257 195 -432 404 l-41 49 -87 -124 c-253 -356 -472 -707 -579 -927 -63
    -128 -70 -150 -71 -205 -1 -61 0 -62 27 -65 35 -4 170 58 211 96 41 39 210
    250 301 376 l78 108 -13 68 c-12 61 -11 72 4 94 28 44 79 46 144 6 43 -26 43
    -62 -2 -127 l-34 -50 33 -83 c99 -239 285 -432 539 -555 138 -67 240 -95 381
    -102 180 -9 334 26 485 110 88 49 261 214 305 291 130 225 163 734 75 1162
    -87 423 -247 816 -458 1128 -48 72 -91 131 -97 132 -5 2 -62 -40 -125 -93z"/>
  </g>
</svg>
